<svg width="146" height="154" viewBox="0 0 146 154" fill="none" xmlns="http://www.w3.org/2000/svg">
<path d="M18 16C33.5 19.5 33.5 37 33.5 37" stroke="#BEBEBE" stroke-width="7" stroke-linecap="round"/>
<path d="M16.8649 148.701C16.4792 151.761 19.5511 154.092 22.3943 152.895L51.1815 140.784C54.0247 139.588 54.5068 135.763 52.0493 133.899L27.1672 115.024C24.7097 113.159 21.1557 114.655 20.77 117.715L16.8649 148.701Z" fill="#2D2D2D"/>
<path d="M146 78C146 118.317 113.317 151 73 151C32.6832 151 0 118.317 0 78C0 37.6832 32.6832 5 73 5C113.317 5 146 37.6832 146 78Z" fill="#2D2D2D"/>
<path d="M114.088 59.8908C113.687 59.4905 113.038 59.4905 112.638 59.8908C112.238 60.2911 112.238 60.9402 112.638 61.3405L117.987 66.6895C118.762 67.4642 118.762 68.7201 117.987 69.4947L112.638 74.8438C112.238 75.2441 112.238 75.8931 112.638 76.2934C113.038 76.6937 113.687 76.6937 114.088 76.2934L119.437 70.9444C120.211 70.1697 121.467 70.1697 122.242 70.9444L127.591 76.2934C127.991 76.6937 128.64 76.6937 129.04 76.2934C129.441 75.8931 129.441 75.2441 129.04 74.8438L123.691 69.4947C122.917 68.7201 122.917 67.4642 123.691 66.6895L129.04 61.3405C129.441 60.9402 129.441 60.2911 129.04 59.8908C128.64 59.4905 127.991 59.4905 127.591 59.8908L122.242 65.2399C121.467 66.0145 120.211 66.0145 119.437 65.2399L114.088 59.8908Z" fill="#FEFEFE" stroke="#FEFEFE" stroke-width="1.98358"/>
<path d="M82.1745 59.8908C81.7742 59.4905 81.1251 59.4905 80.7248 59.8908C80.3245 60.2911 80.3245 60.9402 80.7248 61.3405L86.0739 66.6895C86.8485 67.4642 86.8485 68.7201 86.0739 69.4947L80.7248 74.8438C80.3245 75.2441 80.3245 75.8931 80.7248 76.2934C81.1251 76.6937 81.7742 76.6937 82.1745 76.2934L87.5235 70.9444C88.2981 70.1697 89.5541 70.1697 90.3287 70.9444L95.6778 76.2934C96.0781 76.6937 96.7271 76.6937 97.1274 76.2934C97.5277 75.8931 97.5277 75.2441 97.1274 74.8438L91.7784 69.4947C91.0037 68.7201 91.0037 67.4642 91.7784 66.6895L97.1274 61.3405C97.5277 60.9402 97.5277 60.2911 97.1274 59.8908C96.7271 59.4905 96.0781 59.4905 95.6778 59.8908L90.3287 65.2399C89.5541 66.0145 88.2981 66.0145 87.5235 65.2399L82.1745 59.8908Z" fill="#FEFEFE" stroke="#FEFEFE" stroke-width="1.98358"/>
<line x1="21.0125" y1="2.90689" x2="20.118" y2="7.82624" stroke="#FF383C" stroke-width="5" stroke-linecap="round"/>
<line x1="7.53553" y1="7" x2="11.0711" y2="10.5355" stroke="#FF383C" stroke-width="5" stroke-linecap="round"/>
<line x1="4.5" y1="18.5" x2="9.5" y2="18.5" stroke="#FF383C" stroke-width="5" stroke-linecap="round"/>
</svg>
