<svg width="146" height="149" viewBox="0 0 146 149" fill="none" xmlns="http://www.w3.org/2000/svg">
<path d="M16.8649 143.701C16.4792 146.761 19.5511 149.092 22.3943 147.895L51.1815 135.784C54.0247 134.588 54.5068 130.763 52.0493 128.899L27.1672 110.024C24.7097 108.159 21.1557 109.655 20.77 112.715L16.8649 143.701Z" fill="#FFE0EF"/>
<path d="M146 73C146 113.317 113.317 146 73 146C32.6832 146 0 113.317 0 73C0 32.6832 32.6832 0 73 0C113.317 0 146 32.6832 146 73Z" fill="#FFE0EF"/>
<ellipse cx="88.9032" cy="61.7383" rx="7.40859" ry="12.3476" fill="#2D2D2D"/>
<ellipse cx="121.007" cy="61.7383" rx="7.40859" ry="12.3476" fill="#2D2D2D"/>
</svg>
