<svg width="151" height="149" viewBox="0 0 151 149" fill="none" xmlns="http://www.w3.org/2000/svg">
<path d="M16.8649 143.701C16.4792 146.761 19.5511 149.092 22.3943 147.895L51.1815 135.784C54.0247 134.588 54.5068 130.763 52.0493 128.899L27.1672 110.024C24.7097 108.159 21.1557 109.655 20.77 112.715L16.8649 143.701Z" fill="#FFE0EF"/>
<path d="M146 73C146 113.317 113.317 146 73 146C32.6832 146 0 113.317 0 73C0 32.6832 32.6832 0 73 0C113.317 0 146 32.6832 146 73Z" fill="#FFE0EF"/>
<ellipse cx="88.903" cy="61.7383" rx="7.40859" ry="12.3476" fill="#2D2D2D"/>
<ellipse cx="121.007" cy="61.7383" rx="7.40859" ry="12.3476" fill="#2D2D2D"/>
<path d="M92.2424 113.028C93.4749 99.4447 105.485 89.433 119.068 90.6653C132.651 91.8976 142.663 103.907 141.431 117.49C140.199 131.073 128.188 141.086 114.605 139.854C101.022 138.621 91.0101 126.611 92.2424 113.028Z" fill="#FEFEFE" stroke="#F7F7F7" stroke-width="2.46953"/>
<circle cx="89.1107" cy="106.545" r="12.3476" transform="rotate(5.18384 89.1107 106.545)" fill="#FEBEDF"/>
<circle cx="137.401" cy="93.5683" r="12.3476" transform="rotate(5.18384 137.401 93.5683)" fill="#FEBEDF"/>
</svg>
