<svg width="131" height="130" viewBox="0 0 131 130" fill="none" xmlns="http://www.w3.org/2000/svg">
<path d="M19.8902 121.545C19.5769 124.031 22.0728 125.925 24.3828 124.953L47.7725 115.112C50.0826 114.141 50.4743 111.032 48.4776 109.518L28.2608 94.1818C26.2641 92.6671 23.3765 93.882 23.0631 96.3685L19.8902 121.545Z" fill="#FFE0EF"/>
<path d="M124.812 64.1001C124.812 96.8575 98.2574 123.413 65.5 123.413C32.7426 123.413 6.1875 96.8575 6.1875 64.1001C6.1875 31.3427 32.7426 4.7876 65.5 4.7876C98.2574 4.7876 124.812 31.3427 124.812 64.1001Z" fill="#FFE0EF"/>
<ellipse cx="78.4212" cy="54.9499" rx="6.01948" ry="10.0325" fill="#2D2D2D"/>
<ellipse cx="78.4212" cy="54.9499" rx="6.01948" ry="10.0325" fill="black" fill-opacity="0.2"/>
<ellipse cx="104.506" cy="54.9499" rx="6.01948" ry="10.0325" fill="#2D2D2D"/>
<ellipse cx="104.506" cy="54.9499" rx="6.01948" ry="10.0325" fill="black" fill-opacity="0.2"/>
</svg>
