<svg width="131" height="130" viewBox="0 0 131 130" fill="none" xmlns="http://www.w3.org/2000/svg">
<path d="M17.9344 121.545C17.6211 124.031 20.1169 125.925 22.427 124.953L45.8167 115.112C48.1268 114.141 48.5185 111.032 46.5218 109.518L26.305 94.1818C24.3083 92.6671 21.4207 93.882 21.1073 96.3685L17.9344 121.545Z" fill="#FFE0EF"/>
<path d="M122.857 64.1001C122.857 96.8575 96.3016 123.413 63.5442 123.413C30.7868 123.413 4.23169 96.8575 4.23169 64.1001C4.23169 31.3427 30.7868 4.7876 63.5442 4.7876C96.3016 4.7876 122.857 31.3427 122.857 64.1001Z" fill="#FFE0EF"/>
<ellipse cx="76.4653" cy="54.9499" rx="6.01948" ry="10.0325" fill="#2D2D2D"/>
<ellipse cx="76.4653" cy="54.9499" rx="6.01948" ry="10.0325" fill="black" fill-opacity="0.2"/>
<ellipse cx="102.55" cy="54.9499" rx="6.01948" ry="10.0325" fill="#2D2D2D"/>
<ellipse cx="102.55" cy="54.9499" rx="6.01948" ry="10.0325" fill="black" fill-opacity="0.2"/>
<path d="M79.1785 96.6226C80.1797 85.5863 89.9381 77.4514 100.974 78.4526C112.01 79.4541 120.146 89.2124 119.144 100.249C118.143 111.284 108.384 119.42 97.3484 118.418C86.3122 117.417 78.1773 107.659 79.1785 96.6226Z" fill="#FEFEFE" stroke="#F7F7F7" stroke-width="2.00649"/>
<circle cx="76.634" cy="91.3549" r="10.0325" transform="rotate(5.18384 76.634 91.3549)" fill="#FEBEDF"/>
<circle cx="115.87" cy="80.8115" r="10.0325" transform="rotate(5.18384 115.87 80.8115)" fill="#FEBEDF"/>
<path d="M90.8095 92.3784C90.3219 92.078 89.6832 92.2297 89.3828 92.7173C89.0824 93.2048 89.2341 93.8436 89.7217 94.1439L96.2364 98.1579C97.1799 98.7392 97.4735 99.9753 96.8922 100.919L92.8782 107.433C92.5778 107.921 92.7295 108.56 93.2171 108.86C93.7046 109.161 94.3434 109.009 94.6438 108.521L98.6577 102.007C99.239 101.063 100.475 100.769 101.419 101.351L107.933 105.365C108.421 105.665 109.06 105.513 109.36 105.026C109.66 104.538 109.509 103.9 109.021 103.599L102.506 99.5852C101.563 99.0039 101.269 97.7679 101.851 96.8244L105.865 90.3097C106.165 89.8221 106.013 89.1834 105.526 88.883C105.038 88.5826 104.399 88.7343 104.099 89.2218L100.085 95.7366C99.5038 96.6801 98.2677 96.9736 97.3242 96.3924L90.8095 92.3784Z" fill="#FF383C" stroke="#FF383C" stroke-width="2.00649"/>
</svg>
