<svg width="131" height="130" viewBox="0 0 131 130" fill="none" xmlns="http://www.w3.org/2000/svg">
<path d="M19.8902 121.545C19.5769 124.031 22.0728 125.925 24.3828 124.953L47.7725 115.112C50.0826 114.141 50.4743 111.032 48.4776 109.518L28.2608 94.1818C26.2641 92.6671 23.3765 93.882 23.0631 96.3685L19.8902 121.545Z" fill="#FFE0EF"/>
<path d="M124.812 64.1001C124.812 96.8575 98.2574 123.413 65.5 123.413C32.7426 123.413 6.1875 96.8575 6.1875 64.1001C6.1875 31.3427 32.7426 4.7876 65.5 4.7876C98.2574 4.7876 124.812 31.3427 124.812 64.1001Z" fill="#FFE0EF"/>
<path d="M19.8902 121.545C19.5769 124.031 22.0728 125.925 24.3828 124.953L47.7725 115.112C50.0826 114.141 50.4743 111.032 48.4776 109.518L28.2608 94.1818C26.2641 92.6671 23.3765 93.882 23.0631 96.3685L19.8902 121.545Z" fill="url(#paint0_linear_890_2903)"/>
<path d="M124.812 64.1001C124.812 96.8575 98.2574 123.413 65.5 123.413C32.7426 123.413 6.1875 96.8575 6.1875 64.1001C6.1875 31.3427 32.7426 4.7876 65.5 4.7876C98.2574 4.7876 124.812 31.3427 124.812 64.1001Z" fill="url(#paint1_linear_890_2903)"/>
<path d="M33.5 62C31.3833 62 29.521 60.9856 27.913 58.9567C26.3043 56.927 25.5 54.1809 25.5 50.7185C25.5 48.5401 26.1 46.1783 27.3 43.6331C28.5 41.0879 30.3167 38.3363 32.75 35.3783C32.85 35.2637 32.9667 35.172 33.1 35.1032C33.2333 35.0344 33.3667 35 33.5 35C33.6333 35 33.7667 35.0344 33.9 35.1032C34.0333 35.172 34.15 35.2637 34.25 35.3783C36.6833 38.3363 38.5 41.0879 39.7 43.6331C40.9 46.1783 41.5 48.5401 41.5 50.7185C41.5 54.1809 40.6957 56.927 39.087 58.9567C37.479 60.9856 35.6167 62 33.5 62Z" fill="#B1D7FF"/>
<ellipse cx="78.4212" cy="54.9499" rx="6.01948" ry="10.0325" fill="#2D2D2D"/>
<ellipse cx="78.4212" cy="54.9499" rx="6.01948" ry="10.0325" fill="black" fill-opacity="0.2"/>
<ellipse cx="104.506" cy="54.9499" rx="6.01948" ry="10.0325" fill="#2D2D2D"/>
<ellipse cx="104.506" cy="54.9499" rx="6.01948" ry="10.0325" fill="black" fill-opacity="0.2"/>
<defs>
<linearGradient id="paint0_linear_890_2903" x1="69.1562" y1="-1.5" x2="69.1562" y2="167" gradientUnits="userSpaceOnUse">
<stop stop-color="#FEBEDF"/>
<stop offset="1" stop-color="white" stop-opacity="0"/>
</linearGradient>
<linearGradient id="paint1_linear_890_2903" x1="69.1562" y1="-1.5" x2="69.1562" y2="167" gradientUnits="userSpaceOnUse">
<stop stop-color="#FEBEDF"/>
<stop offset="1" stop-color="white" stop-opacity="0"/>
</linearGradient>
</defs>
</svg>
