<svg width="131" height="130" viewBox="0 0 130 130" fill="none" xmlns="http://www.w3.org/2000/svg">
<path d="M19.3902 121.545C19.0769 124.031 21.5728 125.925 23.8828 124.953L47.2725 115.112C49.5826 114.141 49.9743 111.032 47.9776 109.518L27.7608 94.1818C25.7641 92.6671 22.8765 93.882 22.5631 96.3685L19.3902 121.545Z" fill="#FFE0EF"/>
<path d="M124.312 64.1001C124.312 96.8575 97.7574 123.413 65 123.413C32.2426 123.413 5.6875 96.8575 5.6875 64.1001C5.6875 31.3427 32.2426 4.7876 65 4.7876C97.7574 4.7876 124.312 31.3427 124.312 64.1001Z" fill="#FFE0EF"/>
<path d="M71.6632 59C71.6632 54.5817 74.7972 51 78.6632 51C82.5292 51 85.6632 54.5817 85.6632 59" stroke="#2D2D2D" stroke-width="3" stroke-linecap="round"/>
<path d="M71.6632 59C71.6632 54.5817 74.7972 51 78.6632 51C82.5292 51 85.6632 54.5817 85.6632 59" stroke="black" stroke-opacity="0.2" stroke-width="3" stroke-linecap="round"/>
<path d="M97.6632 59C97.6632 54.5817 100.797 51 104.663 51C108.529 51 111.663 54.5817 111.663 59" stroke="#2D2D2D" stroke-width="3" stroke-linecap="round"/>
<path d="M97.6632 59C97.6632 54.5817 100.797 51 104.663 51C108.529 51 111.663 54.5817 111.663 59" stroke="black" stroke-opacity="0.2" stroke-width="3" stroke-linecap="round"/>
</svg>
