<svg width="131" height="130" viewBox="0 0 131 130" fill="none" xmlns="http://www.w3.org/2000/svg">
<line x1="23.0886" y1="3.16898" x2="22.3619" y2="7.16595" stroke="#FF383C" stroke-width="4.0625" stroke-linecap="round"/>
<path d="M19.8902 125.525C19.5769 128.012 22.0728 129.905 24.3828 128.933L47.7725 119.093C50.0826 118.121 50.4743 115.013 48.4776 113.498L28.2608 98.1623C26.2641 96.6476 23.3765 97.8625 23.0631 100.349L19.8902 125.525Z" fill="#2D2D2D"/>
<path d="M19.8902 125.525C19.5769 128.012 22.0728 129.905 24.3828 128.933L47.7725 119.093C50.0826 118.121 50.4743 115.013 48.4776 113.498L28.2608 98.1623C26.2641 96.6476 23.3765 97.8625 23.0631 100.349L19.8902 125.525Z" fill="black" fill-opacity="0.2"/>
<path d="M124.812 68.0806C124.812 100.838 98.2574 127.393 65.5 127.393C32.7426 127.393 6.1875 100.838 6.1875 68.0806C6.1875 35.3232 32.7426 8.76807 65.5 8.76807C98.2574 8.76807 124.812 35.3232 124.812 68.0806Z" fill="#2D2D2D"/>
<path d="M124.812 68.0806C124.812 100.838 98.2574 127.393 65.5 127.393C32.7426 127.393 6.1875 100.838 6.1875 68.0806C6.1875 35.3232 32.7426 8.76807 65.5 8.76807C98.2574 8.76807 124.812 35.3232 124.812 68.0806Z" fill="black" fill-opacity="0.2"/>
<path d="M20.8125 13.7749C33.4062 16.6187 33.4062 30.8374 33.4062 30.8374" stroke="#BEBEBE" stroke-width="5.6875" stroke-linecap="round"/>
<path d="M99.8207 51.5619C99.4768 51.2342 98.9361 51.2342 98.5921 51.5619C98.2239 51.9128 98.2239 52.5003 98.5921 52.8512L103.348 57.3834C104.015 58.0185 104.015 59.0819 103.348 59.717L98.5921 64.2492C98.2239 64.6001 98.2239 65.1876 98.5921 65.5385C98.9361 65.8662 99.4768 65.8662 99.8207 65.5385L104.752 60.8396C105.374 60.2464 106.353 60.2464 106.975 60.8396L111.906 65.5385C112.25 65.8662 112.791 65.8662 113.135 65.5385C113.503 65.1876 113.503 64.6001 113.135 64.2492L108.379 59.717C107.712 59.0819 107.712 58.0185 108.379 57.3834L113.135 52.8512C113.503 52.5003 113.503 51.9128 113.135 51.5619C112.791 51.2342 112.25 51.2342 111.906 51.5619L106.975 56.2607C106.353 56.854 105.374 56.854 104.752 56.2607L99.8207 51.5619Z" fill="#FEFEFE" stroke="#FEFEFE" stroke-width="1.61166"/>
<path d="M71.4051 51.5619C71.0611 51.2342 70.5204 51.2342 70.1765 51.5619C69.8083 51.9128 69.8083 52.5003 70.1765 52.8512L74.9327 57.3834C75.5992 58.0185 75.5992 59.0819 74.9327 59.717L70.1765 64.2492C69.8083 64.6001 69.8083 65.1876 70.1765 65.5385C70.5204 65.8662 71.0611 65.8662 71.4051 65.5385L76.3361 60.8396C76.9586 60.2464 77.9372 60.2464 78.5597 60.8396L83.4908 65.5385C83.8347 65.8662 84.3754 65.8662 84.7193 65.5385C85.0875 65.1876 85.0875 64.6001 84.7193 64.2492L79.9631 59.717C79.2966 59.0819 79.2966 58.0185 79.9631 57.3834L84.7193 52.8512C85.0875 52.5003 85.0875 51.9128 84.7193 51.5619C84.3754 51.2342 83.8347 51.2342 83.4908 51.5619L78.5597 56.2607C77.9372 56.854 76.9586 56.854 76.3361 56.2607L71.4051 51.5619Z" fill="#FEFEFE" stroke="#FEFEFE" stroke-width="1.61166"/>
<line x1="12.3101" y1="6.4624" x2="15.1827" y2="9.33502" stroke="#FF383C" stroke-width="4.0625" stroke-linecap="round"/>
<line x1="9.84375" y1="15.8062" x2="13.9062" y2="15.8062" stroke="#FF383C" stroke-width="4.0625" stroke-linecap="round"/>
</svg>
