<svg width="18" height="18" viewBox="0 0 18 18" fill="none" xmlns="http://www.w3.org/2000/svg">
<path d="M3.75 15V13.5H4.95L6.43125 8.56875C6.53125 8.24375 6.7155 7.98425 6.984 7.79025C7.253 7.59675 7.55 7.5 7.875 7.5H10.125C10.45 7.5 10.747 7.59675 11.016 7.79025C11.2845 7.98425 11.4688 8.24375 11.5688 8.56875L13.05 13.5H14.25V15H3.75ZM6.525 13.5H11.475L10.125 9H7.875L6.525 13.5ZM8.25 6V2.25H9.75V6H8.25ZM12.7125 7.85625L11.6437 6.7875L14.3063 4.14375L15.3563 5.19375L12.7125 7.85625ZM13.5 11.25V9.75H17.25V11.25H13.5ZM5.2875 7.85625L2.64375 5.19375L3.69375 4.14375L6.35625 6.7875L5.2875 7.85625ZM0.75 11.25V9.75H4.5V11.25H0.75Z" fill="#FF383C"/>
</svg>
