<svg width="154" height="154" viewBox="0 0 154 154" fill="none" xmlns="http://www.w3.org/2000/svg">
<g clip-path="url(#clip0_2157_3510)">
<rect width="153.319" height="153.319" rx="33.5384" fill="url(#paint0_linear_2157_3510)"/>
<circle cx="103.31" cy="64.0826" r="27.5494" fill="url(#paint1_linear_2157_3510)"/>
<foreignObject x="13.7748" y="39.827" width="114.39" height="85.343"><div xmlns="http://www.w3.org/1999/xhtml" style="backdrop-filter:blur(4.49px);clip-path:url(#bgblur_1_2157_3510_clip_path);height:100%;width:100%"></div></foreignObject><g filter="url(#filter0_i_2157_3510)" data-figma-bg-blur-radius="8.98351">
<path d="M96.1236 116.15C108.976 115.442 119.181 104.669 119.181 91.4822C119.181 77.8382 108.255 66.7776 94.7761 66.7776C93.1035 66.7776 91.4702 66.9479 89.8922 67.2723C86.2561 56.5346 76.1412 48.8105 64.2322 48.8105C49.4482 48.8105 37.4292 60.7141 37.1373 75.5096C28.8047 78.1551 22.7583 86.0487 22.7583 95.3751C22.7583 106.717 31.7002 115.94 42.8215 116.182V116.187H96.1236V116.15Z" fill="url(#paint2_linear_2157_3510)"/>
</g>
</g>
<defs>
<filter id="filter0_i_2157_3510" x="13.7748" y="39.827" width="114.39" height="85.343" filterUnits="userSpaceOnUse" color-interpolation-filters="sRGB">
<feFlood flood-opacity="0" result="BackgroundImageFix"/>
<feBlend mode="normal" in="SourceGraphic" in2="BackgroundImageFix" result="shape"/>
<feColorMatrix in="SourceAlpha" type="matrix" values="0 0 0 0 0 0 0 0 0 0 0 0 0 0 0 0 0 0 127 0" result="hardAlpha"/>
<feOffset dx="0.898351" dy="0.598901"/>
<feGaussianBlur stdDeviation="1.49725"/>
<feComposite in2="hardAlpha" operator="arithmetic" k2="-1" k3="1"/>
<feColorMatrix type="matrix" values="0 0 0 0 1 0 0 0 0 1 0 0 0 0 1 0 0 0 0.4 0"/>
<feBlend mode="normal" in2="shape" result="effect1_innerShadow_2157_3510"/>
</filter>
<clipPath id="bgblur_1_2157_3510_clip_path" transform="translate(-13.7748 -39.827)"><path d="M96.1236 116.15C108.976 115.442 119.181 104.669 119.181 91.4822C119.181 77.8382 108.255 66.7776 94.7761 66.7776C93.1035 66.7776 91.4702 66.9479 89.8922 67.2723C86.2561 56.5346 76.1412 48.8105 64.2322 48.8105C49.4482 48.8105 37.4292 60.7141 37.1373 75.5096C28.8047 78.1551 22.7583 86.0487 22.7583 95.3751C22.7583 106.717 31.7002 115.94 42.8215 116.182V116.187H96.1236V116.15Z"/>
</clipPath><linearGradient id="paint0_linear_2157_3510" x1="76.6593" y1="0" x2="76.6593" y2="153.319" gradientUnits="userSpaceOnUse">
<stop stop-color="#2654AA"/>
<stop offset="1" stop-color="#49A2F7"/>
</linearGradient>
<linearGradient id="paint1_linear_2157_3510" x1="103.31" y1="36.5332" x2="103.31" y2="91.6321" gradientUnits="userSpaceOnUse">
<stop stop-color="#FFC600"/>
<stop offset="1" stop-color="#FEE400"/>
</linearGradient>
<linearGradient id="paint2_linear_2157_3510" x1="70.9698" y1="48.8105" x2="70.9698" y2="116.187" gradientUnits="userSpaceOnUse">
<stop stop-color="white"/>
<stop offset="1" stop-color="white" stop-opacity="0.5"/>
</linearGradient>
<clipPath id="clip0_2157_3510">
<rect width="153.319" height="153.319" rx="40.885" fill="white"/>
</clipPath>
</defs>
</svg>
